<?xml version="1.0" encoding="utf-8"?>
<!-- Generator: Adobe Illustrator 21.0.0, SVG Export Plug-In . SVG Version: 6.00 Build 0)  -->
<svg version="1.0" id="logo_1_" xmlns="http://www.w3.org/2000/svg" xmlns:xlink="http://www.w3.org/1999/xlink" x="0px" y="0px"
	 viewBox="0 0 2304 1024" style="enable-background:new 0 0 2304 1024;" xml:space="preserve">
<style type="text/css">
	.st0{display:none;opacity:0.3;}
	.st1{display:inline;fill:none;stroke:#000000;stroke-miterlimit:10;}
	.st2{clip-path:url(#XMLID_6_);}
	.st3{fill:#050F2E;}
	.st4{fill:#0A1F5C;}
	.st5{fill:url(#SVGID_1_);}
	.st6{opacity:0.3;}
	.st7{fill:#FFFFFF;}
	.st8{fill:url(#SVGID_2_);}
	.st9{fill:url(#SVGID_3_);}
	.st10{fill:url(#SVGID_4_);}
	.st11{fill:url(#SVGID_5_);}
	.st12{fill:url(#SVGID_6_);}
	.st13{fill:url(#SVGID_7_);}
	.st14{fill:#FE2719;}
	.st15{fill:#E60B00;}
	.st16{clip-path:url(#clip_9_);}
	.st17{fill:url(#SVGID_8_);}
	.st18{fill:url(#SVGID_9_);}
	.st19{fill:url(#SVGID_10_);}
	.st20{fill:url(#SVGID_11_);}
	.st21{fill:url(#SVGID_12_);}
	.st22{fill:url(#SVGID_13_);}
	.st23{fill:url(#SVGID_14_);}
	.st24{clip-path:url(#clip_11_);}
	.st25{fill:url(#SVGID_15_);}
	.st26{fill:url(#SVGID_16_);}
	.st27{fill:url(#SVGID_17_);}
	.st28{fill:url(#SVGID_18_);}
	.st29{fill:url(#SVGID_19_);}
	.st30{fill:url(#SVGID_20_);}
	.st31{fill:url(#SVGID_21_);}
	.st32{clip-path:url(#clip_12_);}
	.st33{fill:url(#SVGID_22_);}
	.st34{fill:url(#SVGID_23_);}
	.st35{fill:url(#SVGID_24_);}
	.st36{fill:url(#SVGID_25_);}
	.st37{fill:url(#SVGID_26_);}
	.st38{fill:url(#SVGID_27_);}
	.st39{fill:url(#SVGID_28_);}
	.st40{clip-path:url(#clip_14_);}
	.st41{fill:url(#SVGID_29_);}
	.st42{fill:url(#SVGID_30_);}
	.st43{fill:url(#SVGID_31_);}
	.st44{fill:url(#SVGID_32_);}
	.st45{fill:url(#SVGID_33_);}
	.st46{fill:url(#SVGID_34_);}
	.st47{fill:url(#SVGID_35_);}
	.st48{clip-path:url(#clip_15_);}
	.st49{fill:url(#SVGID_36_);}
	.st50{fill:url(#SVGID_37_);}
	.st51{fill:url(#SVGID_38_);}
	.st52{fill:url(#SVGID_39_);}
	.st53{fill:url(#SVGID_40_);}
	.st54{fill:url(#SVGID_41_);}
	.st55{fill:url(#SVGID_42_);}
	.st56{clip-path:url(#clip_16_);}
	.st57{fill:url(#SVGID_43_);}
	.st58{fill:url(#SVGID_44_);}
	.st59{fill:url(#SVGID_45_);}
	.st60{fill:url(#SVGID_46_);}
	.st61{fill:url(#SVGID_47_);}
	.st62{fill:url(#SVGID_48_);}
	.st63{fill:url(#SVGID_49_);}
	.st64{clip-path:url(#clip_17_);}
	.st65{fill:url(#SVGID_50_);}
	.st66{fill:url(#SVGID_51_);}
	.st67{fill:url(#SVGID_52_);}
	.st68{fill:url(#SVGID_53_);}
	.st69{fill:url(#SVGID_54_);}
	.st70{fill:url(#SVGID_55_);}
	.st71{fill:url(#SVGID_56_);}
	.st72{clip-path:url(#XMLID_7_);}
	.st73{fill:url(#SVGID_57_);}
	.st74{fill:url(#SVGID_58_);}
	.st75{fill:url(#SVGID_59_);}
	.st76{fill:url(#SVGID_60_);}
	.st77{fill:url(#SVGID_61_);}
	.st78{fill:url(#SVGID_62_);}
	.st79{fill:url(#SVGID_63_);}
	.st80{clip-path:url(#XMLID_8_);}
	.st81{fill:url(#SVGID_64_);}
	.st82{fill:url(#SVGID_65_);}
	.st83{fill:url(#SVGID_66_);}
	.st84{fill:url(#SVGID_67_);}
	.st85{fill:url(#SVGID_68_);}
	.st86{fill:url(#SVGID_69_);}
	.st87{fill:url(#SVGID_70_);}
</style>
<g id="circle_hexagon">
	<g id="grid_2_" class="st0">
		<line class="st1" x1="0" y1="0" x2="1024" y2="0"/>
		<line class="st1" x1="0" y1="960" x2="1024" y2="960"/>
		<line class="st1" x1="0" y1="896" x2="1024" y2="896"/>
		<line class="st1" x1="0" y1="832" x2="1024" y2="832"/>
		<line class="st1" x1="0" y1="768" x2="1024" y2="768"/>
		<line class="st1" x1="0" y1="704" x2="1024" y2="704"/>
		<line class="st1" x1="0" y1="640" x2="1024" y2="640"/>
		<line class="st1" x1="0" y1="576" x2="1024" y2="576"/>
		<line class="st1" x1="0" y1="512" x2="1024" y2="512"/>
		<line class="st1" x1="0" y1="448" x2="1024" y2="448"/>
		<line class="st1" x1="0" y1="384" x2="1024" y2="384"/>
		<line class="st1" x1="0" y1="320" x2="1024" y2="320"/>
		<line class="st1" x1="0" y1="256" x2="1024" y2="256"/>
		<line class="st1" x1="0" y1="192" x2="1024" y2="192"/>
		<line class="st1" x1="0" y1="128" x2="1024" y2="128"/>
		<line class="st1" x1="0" y1="64" x2="1024" y2="64"/>
		<line class="st1" x1="0" y1="1024" x2="1024" y2="1024"/>
		<line class="st1" x1="0" y1="0" x2="0" y2="1024"/>
		<line class="st1" x1="960" y1="0" x2="960" y2="1024"/>
		<line class="st1" x1="896" y1="0" x2="896" y2="1024"/>
		<line class="st1" x1="832" y1="0" x2="832" y2="1024"/>
		<line class="st1" x1="768" y1="0" x2="768" y2="1024"/>
		<line class="st1" x1="704" y1="0" x2="704" y2="1024"/>
		<line class="st1" x1="640" y1="0" x2="640" y2="1024"/>
		<line class="st1" x1="576" y1="0" x2="576" y2="1024"/>
		<line class="st1" x1="512" y1="0" x2="512" y2="1024"/>
		<line class="st1" x1="448" y1="0" x2="448" y2="1024"/>
		<line class="st1" x1="384" y1="0" x2="384" y2="1024"/>
		<line class="st1" x1="320" y1="0" x2="320" y2="1024"/>
		<line class="st1" x1="256" y1="0" x2="256" y2="1024"/>
		<line class="st1" x1="192" y1="0" x2="192" y2="1024"/>
		<line class="st1" x1="128" y1="0" x2="128" y2="1024"/>
		<line class="st1" x1="64" y1="0" x2="64" y2="1024"/>
		<line class="st1" x1="1024" y1="0" x2="1024" y2="1024"/>
	</g>
	<g id="logo_3_">
		<g>
			<defs>
				<path id="XMLID_1_" d="M68.6,311.4v401.1c0,34.3,18.3,66,48,83.1L464,996.3c29.7,17.1,66.3,17.1,96,0l347.4-200.6
					c29.7-17.1,48-48.8,48-83.1V311.4c0-34.3-18.3-66-48-83.1L560,27.7c-29.7-17.1-66.3-17.1-96,0L116.6,228.3
					C86.9,245.4,68.6,277.1,68.6,311.4z"/>
			</defs>
			
				<radialGradient id="XMLID_5_" cx="984" cy="-152" r="471.044" gradientTransform="matrix(6.123234e-17 -1 1 6.123234e-17 664 1496)" gradientUnits="userSpaceOnUse">
				<stop  offset="0" style="stop-color:#D1ECFA"/>
				<stop  offset="0.4573" style="stop-color:#CFEBFA"/>
				<stop  offset="0.6221" style="stop-color:#C8E9F9"/>
				<stop  offset="0.7395" style="stop-color:#BDE4F8"/>
				<stop  offset="0.8344" style="stop-color:#ACDDF6"/>
				<stop  offset="0.9157" style="stop-color:#96D4F4"/>
				<stop  offset="0.9865" style="stop-color:#7BC9F1"/>
				<stop  offset="1" style="stop-color:#75C7F0"/>
			</radialGradient>
			<use xlink:href="#XMLID_1_"  style="overflow:visible;fill:url(#XMLID_5_);"/>
			<clipPath id="XMLID_6_">
				<use xlink:href="#XMLID_1_"  style="overflow:visible;"/>
			</clipPath>
			<g id="boat_1_" class="st2">
				<g id="boat_4_">
					<path class="st3" d="M723.4,418.8c-38.9-17.4-139.3-64.8-186.4-87c-15.9-7.5-34.1-7.5-50,0c-47,22.2-147.4,69.6-186.4,87
						c-18.1,8.1-18.5,17.9-16.3,36.7c12.6,106.9,64.6,173.2,164.9,194.3c21,4.4,42.6,14.6,62.8,22.1c20.2-7.5,41.8-17.6,62.8-22.1
						c100.3-21.2,152.3-87.4,164.9-194.3C741.9,436.7,741.5,426.9,723.4,418.8z"/>
					<path class="st3" d="M487.3,251.5L265.1,355.1c-7.3,3.4-10.9,12.2-8.1,20.1l9.6,27.6l220.6-103.2c15.8-7.4,33.8-7.4,49.6,0
						l220.6,103.2l9.6-27.6c2.8-7.9-0.8-16.7-8.1-20.1L536.7,251.5C521,244.2,503,244.2,487.3,251.5z"/>
					<path class="st3" d="M660.6,182.2L512,160l-148.6,22.2c-11.3,1-20.4,9.8-21.7,21.1L320,313.5l12-5.6l21.5-93.1
						c1.5-11,10.3-19.6,21.4-20.7L506,172v58.3c2-0.2,4-0.3,6-0.3s4,0.1,6,0.3V172l131.1,22.1c11.1,1.1,19.9,9.7,21.4,20.7
						l21.5,93.1l12,5.6l-21.7-110.1C680.9,192.1,671.9,183.3,660.6,182.2z"/>
				</g>
				<g id="half_boat_2_">
					<path class="st4" d="M512,326.2c-8.5,0-17.1,1.9-25,5.6c-47,22.2-147.4,69.6-186.4,87c-18.1,8.1-18.5,17.9-16.3,36.7
						c12.6,106.9,64.6,173.2,164.9,194.3c21,4.4,42.6,14.6,62.8,22.1V326.2z"/>
					<path class="st4" d="M512,230v-70l-148.6,22.2c-11.3,1-20.4,9.8-21.7,21.1L320,313.5l12-5.6l21.5-93.1
						c1.5-11,10.3-19.6,21.4-20.7L506,172v58.3C508,230.1,510,230,512,230z"/>
					<path class="st4" d="M512,246c-8.4,0-16.9,1.8-24.7,5.5L265.1,355.1c-7.3,3.4-10.9,12.2-8.1,20.1l9.6,27.6l220.6-103.2
						c7.9-3.7,16.3-5.5,24.8-5.5V246z"/>
				</g>
			</g>
			<g id="waves_2_" class="st2">
				<g>
					<linearGradient id="SVGID_1_" gradientUnits="userSpaceOnUse" x1="1213" y1="497.3333" x2="1213" y2="1180">
						<stop  offset="0" style="stop-color:#75C7F0"/>
						<stop  offset="5.633497e-02" style="stop-color:#66B3EE"/>
						<stop  offset="0.1614" style="stop-color:#4E93EC"/>
						<stop  offset="0.2758" style="stop-color:#3B79EA"/>
						<stop  offset="0.401" style="stop-color:#2C64E8"/>
						<stop  offset="0.5427" style="stop-color:#2156E7"/>
						<stop  offset="0.7144" style="stop-color:#1B4EE6"/>
						<stop  offset="1" style="stop-color:#194BE6"/>
					</linearGradient>
					<path class="st5" d="M-16,497.3V1180h2457.3l0.7-596.7c-136.5,0-136.5-85.3-273.1-85.3s-136.5,85.3-273.1,85.3
						c-136.5,0-136.5-85.3-273.1-85.3c-136.5,0-136.5,85.3-273.1,85.3h0.3c-136.5,0-136.5-85.3-273.1-85.3s-136.5,85.3-273.1,85.3
						c-136.5,0-136.5-85.3-273.1-85.3c-136.5,0-136.5,85.3-273.1,85.3c-136.5,0-136.5-85.3-273.1-85.3L-16,497.3z"/>
					<g class="st6">
						<path class="st7" d="M2168.9,506c66,0,98.2,20.1,132.3,41.5c33.2,20.7,67.5,42.2,132.8,43.8l-0.6,580.8H-8V506.1
							c61.1,1.4,92.1,20.9,125,41.4c34.5,21.6,70.2,43.9,140.8,43.9c70.6,0,106.3-22.3,140.8-43.9c34.1-21.3,66.3-41.5,132.3-41.5
							c66,0,98.2,20.1,132.3,41.5c34.5,21.6,70.2,43.9,140.8,43.9c70.6,0,106.3-22.3,140.8-43.9c34.1-21.3,66.3-41.5,132.3-41.5
							s98.2,20.1,132.3,41.5c34.5,21.5,70.1,43.8,140.5,43.9h0.1h0h0.1v0c70.4-0.1,106-22.3,140.5-43.9
							c34.1-21.3,66.3-41.5,132.3-41.5s98.2,20.1,132.3,41.5c34.5,21.6,70.2,43.9,140.8,43.9c70.6,0,106.3-22.3,140.8-43.9
							C2070.7,526.1,2103,506,2168.9,506 M-16,497.3V1180h2457.3l0.7-596.7c-136.5,0-136.5-85.3-273.1-85.3
							c-136.5,0-136.5,85.3-273.1,85.3c-136.5,0-136.5-85.3-273.1-85.3c-136.5,0-136.5,85.3-272.9,85.3c0,0,0.1,0,0.1,0h-0.3
							c0,0,0.1,0,0.1,0c-136.4-0.1-136.4-85.3-272.9-85.3c-136.5,0-136.5,85.3-273.1,85.3c-136.5,0-136.5-85.3-273.1-85.3
							c-136.5,0-136.5,85.3-273.1,85.3c-136.5,0-136.5-85.3-273.1-85.3L-16,497.3L-16,497.3z"/>
					</g>
				</g>
				<g>
					<linearGradient id="SVGID_2_" gradientUnits="userSpaceOnUse" x1="972.9999" y1="561.3334" x2="972.9999" y2="1244">
						<stop  offset="0" style="stop-color:#75C7F0"/>
						<stop  offset="5.633497e-02" style="stop-color:#66B3EE"/>
						<stop  offset="0.1614" style="stop-color:#4E93EC"/>
						<stop  offset="0.2758" style="stop-color:#3B79EA"/>
						<stop  offset="0.401" style="stop-color:#2C64E8"/>
						<stop  offset="0.5427" style="stop-color:#2156E7"/>
						<stop  offset="0.7144" style="stop-color:#1B4EE6"/>
						<stop  offset="1" style="stop-color:#194BE6"/>
					</linearGradient>
					<path class="st8" d="M-256,561.3V1244h2457.3l0.7-596.7c-136.5,0-136.5-85.3-273.1-85.3s-136.5,85.3-273.1,85.3
						c-136.5,0-136.5-85.3-273.1-85.3c-136.5,0-136.5,85.3-273.1,85.3h0.3c-136.5,0-136.5-85.3-273.1-85.3s-136.5,85.3-273.1,85.3
						c-136.5,0-136.5-85.3-273.1-85.3c-136.5,0-136.5,85.3-273.1,85.3c-136.5,0-136.5-85.3-273.1-85.3L-256,561.3z"/>
					<g class="st6">
						<path class="st7" d="M1928.9,570c66,0,98.2,20.1,132.3,41.5c33.2,20.7,67.5,42.2,132.8,43.8l-0.6,580.8H-248V570.1
							c61.1,1.4,92.1,20.9,125,41.4c34.5,21.6,70.2,43.9,140.8,43.9c70.6,0,106.3-22.3,140.8-43.9c34.1-21.3,66.3-41.5,132.3-41.5
							c66,0,98.2,20.1,132.3,41.5c34.5,21.6,70.2,43.9,140.8,43.9c70.6,0,106.3-22.3,140.8-43.9C738.7,590.1,771,570,836.9,570
							s98.2,20.1,132.3,41.5c34.5,21.5,70.1,43.8,140.5,43.9h0.1h0h0.1v0c70.4-0.1,106-22.3,140.5-43.9
							c34.1-21.3,66.3-41.5,132.3-41.5s98.2,20.1,132.3,41.5c34.5,21.6,70.2,43.9,140.8,43.9c70.6,0,106.3-22.3,140.8-43.9
							C1830.7,590.1,1863,570,1928.9,570 M-256,561.3V1244h2457.3l0.7-596.7c-136.5,0-136.5-85.3-273.1-85.3
							c-136.5,0-136.5,85.3-273.1,85.3c-136.5,0-136.5-85.3-273.1-85.3c-136.5,0-136.5,85.3-272.9,85.3c0,0,0.1,0,0.1,0h-0.3
							c0,0,0.1,0,0.1,0C973.5,647.3,973.4,562,836.9,562c-136.5,0-136.5,85.3-273.1,85.3c-136.5,0-136.5-85.3-273.1-85.3
							c-136.5,0-136.5,85.3-273.1,85.3c-136.5,0-136.5-85.3-273.1-85.3L-256,561.3L-256,561.3z"/>
					</g>
				</g>
				<g>
					<linearGradient id="SVGID_3_" gradientUnits="userSpaceOnUse" x1="1165" y1="625.3334" x2="1165" y2="1308">
						<stop  offset="0" style="stop-color:#75C7F0"/>
						<stop  offset="5.633497e-02" style="stop-color:#66B3EE"/>
						<stop  offset="0.1614" style="stop-color:#4E93EC"/>
						<stop  offset="0.2758" style="stop-color:#3B79EA"/>
						<stop  offset="0.401" style="stop-color:#2C64E8"/>
						<stop  offset="0.5427" style="stop-color:#2156E7"/>
						<stop  offset="0.7144" style="stop-color:#1B4EE6"/>
						<stop  offset="1" style="stop-color:#194BE6"/>
					</linearGradient>
					<path class="st9" d="M-64,625.3V1308h2457.3l0.7-596.7c-136.5,0-136.5-85.3-273.1-85.3c-136.5,0-136.5,85.3-273.1,85.3
						c-136.5,0-136.5-85.3-273.1-85.3c-136.5,0-136.5,85.3-273.1,85.3h0.3c-136.5,0-136.5-85.3-273.1-85.3
						c-136.5,0-136.5,85.3-273.1,85.3c-136.5,0-136.5-85.3-273.1-85.3c-136.5,0-136.5,85.3-273.1,85.3C73.2,711.3,73.2,626-63.3,626
						L-64,625.3z"/>
					<g class="st6">
						<path class="st7" d="M2120.9,634c66,0,98.2,20.1,132.3,41.5c33.2,20.7,67.5,42.2,132.8,43.8l-0.6,580.8H-56V634.1
							c61.1,1.4,92.1,20.9,125,41.4c34.5,21.6,70.2,43.9,140.8,43.9c70.6,0,106.3-22.3,140.8-43.9c34.1-21.3,66.3-41.5,132.3-41.5
							c66,0,98.2,20.1,132.3,41.5c34.5,21.6,70.2,43.9,140.8,43.9c70.6,0,106.3-22.3,140.8-43.9c34.1-21.3,66.3-41.5,132.3-41.5
							s98.2,20.1,132.3,41.5c34.5,21.5,70.1,43.8,140.5,43.9h0.1h0h0.1v0c70.4-0.1,106-22.3,140.5-43.9
							c34.1-21.3,66.3-41.5,132.3-41.5s98.2,20.1,132.3,41.5c34.5,21.6,70.2,43.9,140.8,43.9c70.6,0,106.3-22.3,140.8-43.9
							C2022.7,654.1,2055,634,2120.9,634 M-64,625.3V1308h2457.3l0.7-596.7c-136.5,0-136.5-85.3-273.1-85.3
							c-136.5,0-136.5,85.3-273.1,85.3c-136.5,0-136.5-85.3-273.1-85.3c-136.5,0-136.5,85.3-272.9,85.3c0,0,0.1,0,0.1,0h-0.3
							c0,0,0.1,0,0.1,0c-136.4-0.1-136.4-85.3-272.9-85.3c-136.5,0-136.5,85.3-273.1,85.3c-136.5,0-136.5-85.3-273.1-85.3
							c-136.5,0-136.5,85.3-273.1,85.3C73.2,711.3,73.2,626-63.3,626L-64,625.3L-64,625.3z"/>
					</g>
				</g>
				<g>
					<linearGradient id="SVGID_4_" gradientUnits="userSpaceOnUse" x1="780.9999" y1="689.3334" x2="780.9999" y2="1372">
						<stop  offset="0" style="stop-color:#75C7F0"/>
						<stop  offset="5.633497e-02" style="stop-color:#66B3EE"/>
						<stop  offset="0.1614" style="stop-color:#4E93EC"/>
						<stop  offset="0.2758" style="stop-color:#3B79EA"/>
						<stop  offset="0.401" style="stop-color:#2C64E8"/>
						<stop  offset="0.5427" style="stop-color:#2156E7"/>
						<stop  offset="0.7144" style="stop-color:#1B4EE6"/>
						<stop  offset="1" style="stop-color:#194BE6"/>
					</linearGradient>
					<path class="st10" d="M-448,689.3V1372h2457.3l0.7-596.7c-136.5,0-136.5-85.3-273.1-85.3s-136.5,85.3-273.1,85.3
						c-136.5,0-136.5-85.3-273.1-85.3c-136.5,0-136.5,85.3-273.1,85.3h0.3c-136.5,0-136.5-85.3-273.1-85.3s-136.5,85.3-273.1,85.3
						c-136.5,0-136.5-85.3-273.1-85.3c-136.5,0-136.5,85.3-273.1,85.3c-136.5,0-136.5-85.3-273.1-85.3L-448,689.3z"/>
					<g class="st6">
						<path class="st7" d="M1736.9,698c66,0,98.2,20.1,132.3,41.5c33.2,20.7,67.5,42.2,132.8,43.8l-0.6,580.8H-440V698.1
							c61.1,1.4,92.1,20.9,125,41.4c34.5,21.6,70.2,43.9,140.8,43.9c70.6,0,106.3-22.3,140.8-43.9C0.6,718.1,32.8,698,98.8,698
							c66,0,98.2,20.1,132.3,41.5c34.5,21.6,70.2,43.9,140.8,43.9c70.6,0,106.3-22.3,140.8-43.9C546.7,718.1,579,698,644.9,698
							c66,0,98.2,20.1,132.3,41.5c34.5,21.5,70.1,43.8,140.5,43.9h0.1h0h0.1v0c70.4-0.1,106-22.3,140.5-43.9
							c34.1-21.3,66.3-41.5,132.3-41.5s98.2,20.1,132.3,41.5c34.5,21.6,70.2,43.9,140.8,43.9c70.6,0,106.3-22.3,140.8-43.9
							C1638.7,718.1,1671,698,1736.9,698 M-448,689.3V1372h2457.3l0.7-596.7c-136.5,0-136.5-85.3-273.1-85.3
							c-136.5,0-136.5,85.3-273.1,85.3c-136.5,0-136.5-85.3-273.1-85.3c-136.5,0-136.5,85.3-272.9,85.3c0,0,0.1,0,0.1,0h-0.3
							c0,0,0.1,0,0.1,0C781.5,775.3,781.4,690,644.9,690c-136.5,0-136.5,85.3-273.1,85.3c-136.5,0-136.5-85.3-273.1-85.3
							c-136.5,0-136.5,85.3-273.1,85.3c-136.5,0-136.5-85.3-273.1-85.3L-448,689.3L-448,689.3z"/>
					</g>
				</g>
				<g>
					<linearGradient id="SVGID_5_" gradientUnits="userSpaceOnUse" x1="844.9999" y1="753.3334" x2="844.9999" y2="1436">
						<stop  offset="0" style="stop-color:#75C7F0"/>
						<stop  offset="5.633497e-02" style="stop-color:#66B3EE"/>
						<stop  offset="0.1614" style="stop-color:#4E93EC"/>
						<stop  offset="0.2758" style="stop-color:#3B79EA"/>
						<stop  offset="0.401" style="stop-color:#2C64E8"/>
						<stop  offset="0.5427" style="stop-color:#2156E7"/>
						<stop  offset="0.7144" style="stop-color:#1B4EE6"/>
						<stop  offset="1" style="stop-color:#194BE6"/>
					</linearGradient>
					<path class="st11" d="M-384,753.3V1436h2457.3l0.7-596.7c-136.5,0-136.5-85.3-273.1-85.3s-136.5,85.3-273.1,85.3
						c-136.5,0-136.5-85.3-273.1-85.3c-136.5,0-136.5,85.3-273.1,85.3h0.3c-136.5,0-136.5-85.3-273.1-85.3s-136.5,85.3-273.1,85.3
						c-136.5,0-136.5-85.3-273.1-85.3c-136.5,0-136.5,85.3-273.1,85.3c-136.5,0-136.5-85.3-273.1-85.3L-384,753.3z"/>
					<g class="st6">
						<path class="st7" d="M1800.9,762c66,0,98.2,20.1,132.3,41.5c33.2,20.7,67.5,42.2,132.8,43.8l-0.6,580.8H-376V762.1
							c61.1,1.4,92.1,20.9,125,41.4c34.5,21.6,70.2,43.9,140.8,43.9c70.6,0,106.3-22.3,140.8-43.9C64.6,782.1,96.8,762,162.8,762
							c66,0,98.2,20.1,132.3,41.5c34.5,21.6,70.2,43.9,140.8,43.9c70.6,0,106.3-22.3,140.8-43.9C610.7,782.1,643,762,708.9,762
							c66,0,98.2,20.1,132.3,41.5c34.5,21.5,70.1,43.8,140.5,43.9h0.1h0h0.1v0c70.4-0.1,106-22.3,140.5-43.9
							c34.1-21.3,66.3-41.5,132.3-41.5s98.2,20.1,132.3,41.5c34.5,21.6,70.2,43.9,140.8,43.9c70.6,0,106.3-22.3,140.8-43.9
							C1702.7,782.1,1735,762,1800.9,762 M-384,753.3V1436h2457.3l0.7-596.7c-136.5,0-136.5-85.3-273.1-85.3
							c-136.5,0-136.5,85.3-273.1,85.3c-136.5,0-136.5-85.3-273.1-85.3c-136.5,0-136.5,85.3-272.9,85.3c0,0,0.1,0,0.1,0h-0.3
							c0,0,0.1,0,0.1,0C845.5,839.3,845.4,754,708.9,754c-136.5,0-136.5,85.3-273.1,85.3c-136.5,0-136.5-85.3-273.1-85.3
							c-136.5,0-136.5,85.3-273.1,85.3c-136.5,0-136.5-85.3-273.1-85.3L-384,753.3L-384,753.3z"/>
					</g>
				</g>
				<g>
					<linearGradient id="SVGID_6_" gradientUnits="userSpaceOnUse" x1="908.9999" y1="817.3334" x2="908.9999" y2="1500">
						<stop  offset="0" style="stop-color:#75C7F0"/>
						<stop  offset="5.633497e-02" style="stop-color:#66B3EE"/>
						<stop  offset="0.1614" style="stop-color:#4E93EC"/>
						<stop  offset="0.2758" style="stop-color:#3B79EA"/>
						<stop  offset="0.401" style="stop-color:#2C64E8"/>
						<stop  offset="0.5427" style="stop-color:#2156E7"/>
						<stop  offset="0.7144" style="stop-color:#1B4EE6"/>
						<stop  offset="1" style="stop-color:#194BE6"/>
					</linearGradient>
					<path class="st12" d="M-320,817.3V1500h2457.3l0.7-596.7c-136.5,0-136.5-85.3-273.1-85.3s-136.5,85.3-273.1,85.3
						c-136.5,0-136.5-85.3-273.1-85.3c-136.5,0-136.5,85.3-273.1,85.3h0.3c-136.5,0-136.5-85.3-273.1-85.3s-136.5,85.3-273.1,85.3
						c-136.5,0-136.5-85.3-273.1-85.3c-136.5,0-136.5,85.3-273.1,85.3c-136.5,0-136.5-85.3-273.1-85.3L-320,817.3z"/>
					<g class="st6">
						<path class="st7" d="M1864.9,826c66,0,98.2,20.1,132.3,41.5c33.2,20.7,67.5,42.2,132.8,43.8l-0.6,580.8H-312V826.1
							c61.1,1.4,92.1,20.9,125,41.4c34.5,21.6,70.2,43.9,140.8,43.9c70.6,0,106.3-22.3,140.8-43.9c34.1-21.3,66.3-41.5,132.3-41.5
							c66,0,98.2,20.1,132.3,41.5c34.5,21.6,70.2,43.9,140.8,43.9c70.6,0,106.3-22.3,140.8-43.9C674.7,846.1,707,826,772.9,826
							c66,0,98.2,20.1,132.3,41.5c34.5,21.5,70.1,43.8,140.5,43.9h0.1h0h0.1v0c70.4-0.1,106-22.3,140.5-43.9
							c34.1-21.3,66.3-41.5,132.3-41.5s98.2,20.1,132.3,41.5c34.5,21.6,70.2,43.9,140.8,43.9c70.6,0,106.3-22.3,140.8-43.9
							C1766.7,846.1,1799,826,1864.9,826 M-320,817.3V1500h2457.3l0.7-596.7c-136.5,0-136.5-85.3-273.1-85.3
							c-136.5,0-136.5,85.3-273.1,85.3c-136.5,0-136.5-85.3-273.1-85.3c-136.5,0-136.5,85.3-272.9,85.3c0,0,0.1,0,0.1,0h-0.3
							c0,0,0.1,0,0.1,0C909.5,903.3,909.4,818,772.9,818c-136.5,0-136.5,85.3-273.1,85.3c-136.5,0-136.5-85.3-273.1-85.3
							c-136.5,0-136.5,85.3-273.1,85.3c-136.5,0-136.5-85.3-273.1-85.3L-320,817.3L-320,817.3z"/>
					</g>
				</g>
				<g>
					<linearGradient id="SVGID_7_" gradientUnits="userSpaceOnUse" x1="972.9999" y1="881.3334" x2="972.9999" y2="1564">
						<stop  offset="0" style="stop-color:#75C7F0"/>
						<stop  offset="5.633497e-02" style="stop-color:#66B3EE"/>
						<stop  offset="0.1614" style="stop-color:#4E93EC"/>
						<stop  offset="0.2758" style="stop-color:#3B79EA"/>
						<stop  offset="0.401" style="stop-color:#2C64E8"/>
						<stop  offset="0.5427" style="stop-color:#2156E7"/>
						<stop  offset="0.7144" style="stop-color:#1B4EE6"/>
						<stop  offset="1" style="stop-color:#194BE6"/>
					</linearGradient>
					<path class="st13" d="M-256,881.3V1564h2457.3l0.7-596.7c-136.5,0-136.5-85.3-273.1-85.3s-136.5,85.3-273.1,85.3
						c-136.5,0-136.5-85.3-273.1-85.3c-136.5,0-136.5,85.3-273.1,85.3h0.3c-136.5,0-136.5-85.3-273.1-85.3s-136.5,85.3-273.1,85.3
						c-136.5,0-136.5-85.3-273.1-85.3c-136.5,0-136.5,85.3-273.1,85.3c-136.5,0-136.5-85.3-273.1-85.3L-256,881.3z"/>
					<g class="st6">
						<path class="st7" d="M1928.9,890c66,0,98.2,20.1,132.3,41.5c33.2,20.7,67.5,42.2,132.8,43.8l-0.6,580.8H-248V890.1
							c61.1,1.4,92.1,20.9,125,41.4c34.5,21.6,70.2,43.9,140.8,43.9c70.6,0,106.3-22.3,140.8-43.9c34.1-21.3,66.3-41.5,132.3-41.5
							c66,0,98.2,20.1,132.3,41.5c34.5,21.6,70.2,43.9,140.8,43.9c70.6,0,106.3-22.3,140.8-43.9C738.7,910.1,771,890,836.9,890
							s98.2,20.1,132.3,41.5c34.5,21.5,70.1,43.8,140.5,43.9h0.1h0h0.1v0c70.4-0.1,106-22.3,140.5-43.9
							c34.1-21.3,66.3-41.5,132.3-41.5s98.2,20.1,132.3,41.5c34.5,21.6,70.2,43.9,140.8,43.9c70.6,0,106.3-22.3,140.8-43.9
							C1830.7,910.1,1863,890,1928.9,890 M-256,881.3V1564h2457.3l0.7-596.7c-136.5,0-136.5-85.3-273.1-85.3
							c-136.5,0-136.5,85.3-273.1,85.3c-136.5,0-136.5-85.3-273.1-85.3c-136.5,0-136.5,85.3-272.9,85.3c0,0,0.1,0,0.1,0h-0.3
							c0,0,0.1,0,0.1,0C973.5,967.3,973.4,882,836.9,882c-136.5,0-136.5,85.3-273.1,85.3c-136.5,0-136.5-85.3-273.1-85.3
							c-136.5,0-136.5,85.3-273.1,85.3c-136.5,0-136.5-85.3-273.1-85.3L-256,881.3L-256,881.3z"/>
					</g>
				</g>
			</g>
			<g id="flag_2_" class="st2">
				<rect x="732" y="192" class="st3" width="8" height="172"/>
				<polygon class="st14" points="787,224 763.5,236 740,248 740,224 740,200 763.5,212 				"/>
			</g>
			<g id="lifebouy_2_" class="st2">
				<path class="st14" d="M320,448c-35.3,0-64,28.7-64,64c0,35.3,28.7,64,64,64s64-28.7,64-64C384,476.7,355.3,448,320,448z
					 M320,552c-22.1,0-40-17.9-40-40c0-22.1,17.9-40,40-40s40,17.9,40,40C360,534.1,342.1,552,320,552z"/>
				<path class="st15" d="M320,448v24c22.1,0,40,17.9,40,40c0,22.1-17.9,40-40,40v24c35.3,0,64-28.7,64-64S355.3,448,320,448z"/>
				<g>
					<path class="st7" d="M298.3,478.4L281,461.2c-4.2,3.3-8.1,7-11.4,11.3l17.2,17.2C289.9,485.2,293.7,481.4,298.3,478.4z"/>
					<path class="st7" d="M286.8,534.3l-17.2,17.2c3.3,4.2,7.1,8,11.4,11.3l17.2-17.2C293.7,542.6,289.9,538.8,286.8,534.3z"/>
					<path class="st7" d="M370.8,551l-17.2-17.2c-2.9,4.5-6.7,8.4-11.2,11.4l17.2,17.2C363.7,559,367.5,555.2,370.8,551z"/>
					<path class="st7" d="M353.6,490.3l17.2-17.2c-3.3-4.2-7-8.1-11.3-11.4l-17.2,17.2C346.8,481.9,350.6,485.7,353.6,490.3z"/>
				</g>
			</g>
		</g>
	</g>
</g>
<g id="circle_clear">
	<g id="logo_2_">
		<defs>
			<path id="clip_1_" d="M512-342L512-342C229.2-342,0-571.2,0-854v0c0-282.8,229.2-512,512-512h0c282.8,0,512,229.2,512,512v0
				C1024-571.2,794.8-342,512-342z"/>
		</defs>
		<clipPath id="clip_8_">
			<use xlink:href="#clip_1_"  style="overflow:visible;"/>
		</clipPath>
		<g id="waves_1_" style="clip-path:url(#clip_8_);">
			<g>
				<linearGradient id="SVGID_8_" gradientUnits="userSpaceOnUse" x1="780.9999" y1="-676.6666" x2="780.9999" y2="6">
					<stop  offset="0" style="stop-color:#75C7F0"/>
					<stop  offset="5.633497e-02" style="stop-color:#66B3EE"/>
					<stop  offset="0.1614" style="stop-color:#4E93EC"/>
					<stop  offset="0.2758" style="stop-color:#3B79EA"/>
					<stop  offset="0.401" style="stop-color:#2C64E8"/>
					<stop  offset="0.5427" style="stop-color:#2156E7"/>
					<stop  offset="0.7144" style="stop-color:#1B4EE6"/>
					<stop  offset="1" style="stop-color:#194BE6"/>
				</linearGradient>
				<path class="st17" d="M-448-676.7V6h2457.3l0.7-596.7c-136.5,0-136.5-85.3-273.1-85.3s-136.5,85.3-273.1,85.3
					c-136.5,0-136.5-85.3-273.1-85.3c-136.5,0-136.5,85.3-273.1,85.3h0.3c-136.5,0-136.5-85.3-273.1-85.3s-136.5,85.3-273.1,85.3
					c-136.5,0-136.5-85.3-273.1-85.3c-136.5,0-136.5,85.3-273.1,85.3c-136.5,0-136.5-85.3-273.1-85.3L-448-676.7z"/>
				<g class="st6">
					<path class="st7" d="M1736.9-668c66,0,98.2,20.1,132.3,41.5c33.2,20.7,67.5,42.2,132.8,43.8L2001.3-2H-440v-665.9
						c61.1,1.4,92.1,20.9,125,41.4c34.5,21.6,70.2,43.9,140.8,43.9c70.6,0,106.3-22.3,140.8-43.9C0.6-647.9,32.8-668,98.8-668
						c66,0,98.2,20.1,132.3,41.5c34.5,21.6,70.2,43.9,140.8,43.9c70.6,0,106.3-22.3,140.8-43.9C546.7-647.9,579-668,644.9-668
						c66,0,98.2,20.1,132.3,41.5c34.5,21.5,70.1,43.8,140.5,43.9h0.1h0h0.1v0c70.4-0.1,106-22.3,140.5-43.9
						c34.1-21.3,66.3-41.5,132.3-41.5s98.2,20.1,132.3,41.5c34.5,21.6,70.2,43.9,140.8,43.9c70.6,0,106.3-22.3,140.8-43.9
						C1638.7-647.9,1671-668,1736.9-668 M-448-676.7V6h2457.3l0.7-596.7c-136.5,0-136.5-85.3-273.1-85.3
						c-136.5,0-136.5,85.3-273.1,85.3c-136.5,0-136.5-85.3-273.1-85.3c-136.5,0-136.5,85.3-272.9,85.3c0,0,0.1,0,0.1,0h-0.3
						c0,0,0.1,0,0.1,0C781.5-590.7,781.4-676,644.9-676c-136.5,0-136.5,85.3-273.1,85.3c-136.5,0-136.5-85.3-273.1-85.3
						c-136.5,0-136.5,85.3-273.1,85.3c-136.5,0-136.5-85.3-273.1-85.3L-448-676.7L-448-676.7z"/>
				</g>
			</g>
			<g>
				<linearGradient id="SVGID_9_" gradientUnits="userSpaceOnUse" x1="844.9999" y1="-612.6666" x2="844.9999" y2="70">
					<stop  offset="0" style="stop-color:#75C7F0"/>
					<stop  offset="5.633497e-02" style="stop-color:#66B3EE"/>
					<stop  offset="0.1614" style="stop-color:#4E93EC"/>
					<stop  offset="0.2758" style="stop-color:#3B79EA"/>
					<stop  offset="0.401" style="stop-color:#2C64E8"/>
					<stop  offset="0.5427" style="stop-color:#2156E7"/>
					<stop  offset="0.7144" style="stop-color:#1B4EE6"/>
					<stop  offset="1" style="stop-color:#194BE6"/>
				</linearGradient>
				<path class="st18" d="M-384-612.7V70h2457.3l0.7-596.7c-136.5,0-136.5-85.3-273.1-85.3s-136.5,85.3-273.1,85.3
					c-136.5,0-136.5-85.3-273.1-85.3c-136.5,0-136.5,85.3-273.1,85.3h0.3c-136.5,0-136.5-85.3-273.1-85.3s-136.5,85.3-273.1,85.3
					c-136.5,0-136.5-85.3-273.1-85.3c-136.5,0-136.5,85.3-273.1,85.3c-136.5,0-136.5-85.3-273.1-85.3L-384-612.7z"/>
				<g class="st6">
					<path class="st7" d="M1800.9-604c66,0,98.2,20.1,132.3,41.5c33.2,20.7,67.5,42.2,132.8,43.8L2065.3,62H-376v-665.9
						c61.1,1.4,92.1,20.9,125,41.4c34.5,21.6,70.2,43.9,140.8,43.9c70.6,0,106.3-22.3,140.8-43.9C64.6-583.9,96.8-604,162.8-604
						c66,0,98.2,20.1,132.3,41.5c34.5,21.6,70.2,43.9,140.8,43.9c70.6,0,106.3-22.3,140.8-43.9C610.7-583.9,643-604,708.9-604
						c66,0,98.2,20.1,132.3,41.5c34.5,21.5,70.1,43.8,140.5,43.9h0.1h0h0.1v0c70.4-0.1,106-22.3,140.5-43.9
						c34.1-21.3,66.3-41.5,132.3-41.5s98.2,20.1,132.3,41.5c34.5,21.6,70.2,43.9,140.8,43.9c70.6,0,106.3-22.3,140.8-43.9
						C1702.7-583.9,1735-604,1800.9-604 M-384-612.7V70h2457.3l0.7-596.7c-136.5,0-136.5-85.3-273.1-85.3
						c-136.5,0-136.5,85.3-273.1,85.3c-136.5,0-136.5-85.3-273.1-85.3c-136.5,0-136.5,85.3-272.9,85.3c0,0,0.1,0,0.1,0h-0.3
						c0,0,0.1,0,0.1,0C845.5-526.7,845.4-612,708.9-612c-136.5,0-136.5,85.3-273.1,85.3c-136.5,0-136.5-85.3-273.1-85.3
						c-136.5,0-136.5,85.3-273.1,85.3c-136.5,0-136.5-85.3-273.1-85.3L-384-612.7L-384-612.7z"/>
				</g>
			</g>
			<g>
				<linearGradient id="SVGID_10_" gradientUnits="userSpaceOnUse" x1="908.9999" y1="-548.6666" x2="908.9999" y2="134">
					<stop  offset="0" style="stop-color:#75C7F0"/>
					<stop  offset="5.633497e-02" style="stop-color:#66B3EE"/>
					<stop  offset="0.1614" style="stop-color:#4E93EC"/>
					<stop  offset="0.2758" style="stop-color:#3B79EA"/>
					<stop  offset="0.401" style="stop-color:#2C64E8"/>
					<stop  offset="0.5427" style="stop-color:#2156E7"/>
					<stop  offset="0.7144" style="stop-color:#1B4EE6"/>
					<stop  offset="1" style="stop-color:#194BE6"/>
				</linearGradient>
				<path class="st19" d="M-320-548.7V134h2457.3l0.7-596.7c-136.5,0-136.5-85.3-273.1-85.3s-136.5,85.3-273.1,85.3
					c-136.5,0-136.5-85.3-273.1-85.3c-136.5,0-136.5,85.3-273.1,85.3h0.3c-136.5,0-136.5-85.3-273.1-85.3s-136.5,85.3-273.1,85.3
					c-136.5,0-136.5-85.3-273.1-85.3c-136.5,0-136.5,85.3-273.1,85.3c-136.5,0-136.5-85.3-273.1-85.3L-320-548.7z"/>
				<g class="st6">
					<path class="st7" d="M1864.9-540c66,0,98.2,20.1,132.3,41.5c33.2,20.7,67.5,42.2,132.8,43.8l-0.6,580.8H-312v-665.9
						c61.1,1.4,92.1,20.9,125,41.4c34.5,21.6,70.2,43.9,140.8,43.9c70.6,0,106.3-22.3,140.8-43.9c34.1-21.3,66.3-41.5,132.3-41.5
						c66,0,98.2,20.1,132.3,41.5c34.5,21.6,70.2,43.9,140.8,43.9c70.6,0,106.3-22.3,140.8-43.9C674.7-519.9,707-540,772.9-540
						c66,0,98.2,20.1,132.3,41.5c34.5,21.5,70.1,43.8,140.5,43.9h0.1h0h0.1v0c70.4-0.1,106-22.3,140.5-43.9
						c34.1-21.3,66.3-41.5,132.3-41.5s98.2,20.1,132.3,41.5c34.5,21.6,70.2,43.9,140.8,43.9c70.6,0,106.3-22.3,140.8-43.9
						C1766.7-519.9,1799-540,1864.9-540 M-320-548.7V134h2457.3l0.7-596.7c-136.5,0-136.5-85.3-273.1-85.3
						c-136.5,0-136.5,85.3-273.1,85.3c-136.5,0-136.5-85.3-273.1-85.3c-136.5,0-136.5,85.3-272.9,85.3c0,0,0.1,0,0.1,0h-0.3
						c0,0,0.1,0,0.1,0C909.5-462.7,909.4-548,772.9-548c-136.5,0-136.5,85.3-273.1,85.3c-136.5,0-136.5-85.3-273.1-85.3
						c-136.5,0-136.5,85.3-273.1,85.3c-136.5,0-136.5-85.3-273.1-85.3L-320-548.7L-320-548.7z"/>
				</g>
			</g>
			<g>
				<linearGradient id="SVGID_11_" gradientUnits="userSpaceOnUse" x1="972.9999" y1="-484.6667" x2="972.9999" y2="198">
					<stop  offset="0" style="stop-color:#75C7F0"/>
					<stop  offset="5.633497e-02" style="stop-color:#66B3EE"/>
					<stop  offset="0.1614" style="stop-color:#4E93EC"/>
					<stop  offset="0.2758" style="stop-color:#3B79EA"/>
					<stop  offset="0.401" style="stop-color:#2C64E8"/>
					<stop  offset="0.5427" style="stop-color:#2156E7"/>
					<stop  offset="0.7144" style="stop-color:#1B4EE6"/>
					<stop  offset="1" style="stop-color:#194BE6"/>
				</linearGradient>
				<path class="st20" d="M-256-484.7V198h2457.3l0.7-596.7c-136.5,0-136.5-85.3-273.1-85.3s-136.5,85.3-273.1,85.3
					c-136.5,0-136.5-85.3-273.1-85.3c-136.5,0-136.5,85.3-273.1,85.3h0.3c-136.5,0-136.5-85.3-273.1-85.3s-136.5,85.3-273.1,85.3
					c-136.5,0-136.5-85.3-273.1-85.3c-136.5,0-136.5,85.3-273.1,85.3c-136.5,0-136.5-85.3-273.1-85.3L-256-484.7z"/>
				<g class="st6">
					<path class="st7" d="M1928.9-476c66,0,98.2,20.1,132.3,41.5c33.2,20.7,67.5,42.2,132.8,43.8l-0.6,580.8H-248v-665.9
						c61.1,1.4,92.1,20.9,125,41.4c34.5,21.6,70.2,43.9,140.8,43.9c70.6,0,106.3-22.3,140.8-43.9c34.1-21.3,66.3-41.5,132.3-41.5
						c66,0,98.2,20.1,132.3,41.5c34.5,21.6,70.2,43.9,140.8,43.9c70.6,0,106.3-22.3,140.8-43.9C738.7-455.9,771-476,836.9-476
						s98.2,20.1,132.3,41.5c34.5,21.5,70.1,43.8,140.5,43.9h0.1h0h0.1v0c70.4-0.1,106-22.3,140.5-43.9
						c34.1-21.3,66.3-41.5,132.3-41.5s98.2,20.1,132.3,41.5c34.5,21.6,70.2,43.9,140.8,43.9c70.6,0,106.3-22.3,140.8-43.9
						C1830.7-455.9,1863-476,1928.9-476 M-256-484.7V198h2457.3l0.7-596.7c-136.5,0-136.5-85.3-273.1-85.3
						c-136.5,0-136.5,85.3-273.1,85.3c-136.5,0-136.5-85.3-273.1-85.3c-136.5,0-136.5,85.3-272.9,85.3c0,0,0.1,0,0.1,0h-0.3
						c0,0,0.1,0,0.1,0C973.5-398.7,973.4-484,836.9-484c-136.5,0-136.5,85.3-273.1,85.3c-136.5,0-136.5-85.3-273.1-85.3
						c-136.5,0-136.5,85.3-273.1,85.3c-136.5,0-136.5-85.3-273.1-85.3L-256-484.7L-256-484.7z"/>
				</g>
			</g>
		</g>
	</g>
</g>
<g>
	<g>
		<path class="st3" d="M1278.2,521.4V333.3h26.5l60.3,95.2c14,22,24.8,41.9,33.8,61.1l0.6-0.3c-2.2-25.1-2.8-48-2.8-77.3v-78.7h22.9
			v188.1h-24.6l-59.7-95.5c-13.1-20.9-25.7-42.4-35.2-62.8l-0.8,0.3c1.4,23.7,2,46.3,2,77.6v80.4H1278.2z"/>
		<path class="st3" d="M1486.1,333.3v188.1h-24.3V333.3H1486.1z"/>
		<path class="st3" d="M1569.8,521.4l-61.4-188.1h26.2L1564,426c8.1,25.4,15.1,48.3,20.1,70.3h0.6c5.3-21.8,13.1-45.5,21.5-70.1
			l31.8-92.9h26l-67.3,188.1H1569.8z"/>
		<path class="st3" d="M1698.8,462.3l-19.5,59.2h-25.1l63.9-188.1h29.3l64.2,188.1h-26l-20.1-59.2H1698.8z M1760.5,443.3l-18.4-54.1
			c-4.2-12.3-7-23.4-9.8-34.3h-0.6c-2.8,11.2-5.9,22.6-9.5,34.1l-18.4,54.4H1760.5z"/>
		<path class="st3" d="M1839.2,335.8c12.3-2.5,29.9-3.9,46.6-3.9c26,0,42.7,4.7,54.4,15.3c9.5,8.4,14.8,21.2,14.8,35.7
			c0,24.8-15.6,41.3-35.4,48v0.8c14.5,5,23.2,18.4,27.6,38c6.1,26.2,10.6,44.4,14.5,51.6h-25.1c-3.1-5.3-7.3-21.5-12.6-44.9
			c-5.6-26-15.6-35.7-37.7-36.6h-22.9v81.5h-24.3V335.8z M1863.5,421.5h24.8c26,0,42.4-14.2,42.4-35.7c0-24.3-17.6-34.9-43.3-35.2
			c-11.7,0-20.1,1.1-24,2.2V421.5z"/>
		<path class="st3" d="M2021.1,462.3l-19.5,59.2h-25.1l63.9-188.1h29.3l64.2,188.1h-26l-20.1-59.2H2021.1z M2082.8,443.3l-18.4-54.1
			c-4.2-12.3-7-23.4-9.8-34.3h-0.6c-2.8,11.2-5.9,22.6-9.5,34.1l-18.4,54.4H2082.8z"/>
		<path class="st3" d="M2161.5,521.4V333.3h26.5l60.3,95.2c14,22,24.8,41.9,33.8,61.1l0.6-0.3c-2.2-25.1-2.8-48-2.8-77.3v-78.7h22.9
			v188.1h-24.6l-59.7-95.5c-13.1-20.9-25.7-42.4-35.2-62.8l-0.8,0.3c1.4,23.7,2,46.3,2,77.6v80.4H2161.5z"/>
	</g>
	<g>
		<path class="st4" d="M1278.6,635h39.7v8h-30.2v24.5h27.9v7.9h-27.9v33.4h-9.5V635z"/>
		<path class="st4" d="M1331.9,635h9.5v65.8h31.5v8h-41V635z"/>
		<path class="st4" d="M1442.3,671.1c0,25.4-15.4,38.9-34.3,38.9c-19.5,0-33.2-15.1-33.2-37.4c0-23.4,14.6-38.8,34.3-38.8
			C1429.3,633.8,1442.3,649.3,1442.3,671.1z M1385.1,672.3c0,15.8,8.5,29.9,23.5,29.9c15.1,0,23.6-13.9,23.6-30.7
			c0-14.7-7.7-30-23.5-30C1393,641.6,1385.1,656.1,1385.1,672.3z"/>
		<path class="st4" d="M1517.8,671.1c0,25.4-15.4,38.9-34.3,38.9c-19.5,0-33.2-15.1-33.2-37.4c0-23.4,14.6-38.8,34.3-38.8
			C1504.7,633.8,1517.8,649.3,1517.8,671.1z M1460.5,672.3c0,15.8,8.5,29.9,23.5,29.9c15.1,0,23.6-13.9,23.6-30.7
			c0-14.7-7.7-30-23.5-30C1468.4,641.6,1460.5,656.1,1460.5,672.3z"/>
		<path class="st4" d="M1530.1,636c5.8-0.9,12.7-1.5,20.3-1.5c13.7,0,23.4,3.2,29.9,9.2c6.6,6,10.4,14.6,10.4,26.5
			c0,12-3.7,21.9-10.6,28.7c-6.9,6.9-18.3,10.6-32.6,10.6c-6.8,0-12.5-0.3-17.3-0.9V636z M1539.7,701.2c2.4,0.4,5.9,0.5,9.6,0.5
			c20.4,0,31.4-11.4,31.4-31.3c0.1-17.4-9.7-28.5-29.9-28.5c-4.9,0-8.6,0.4-11.2,1V701.2z"/>
		<path class="st4" d="M1688.4,676.4c-0.5-10.3-1.2-22.7-1.1-31.9h-0.3c-2.5,8.6-5.6,17.8-9.3,28l-13,35.8h-7.2l-11.9-35.1
			c-3.5-10.4-6.5-19.9-8.5-28.7h-0.2c-0.2,9.2-0.8,21.6-1.4,32.6l-2,31.6h-9.1l5.1-73.8h12.2l12.6,35.7c3.1,9.1,5.6,17.2,7.4,24.8
			h0.3c1.9-7.4,4.5-15.5,7.8-24.8l13.1-35.7h12.2l4.6,73.8h-9.3L1688.4,676.4z"/>
		<path class="st4" d="M1725.1,685.6l-7.7,23.2h-9.9l25.1-73.8h11.5l25.2,73.8h-10.2l-7.9-23.2H1725.1z M1749.3,678.1l-7.2-21.2
			c-1.6-4.8-2.7-9.2-3.8-13.5h-0.2c-1.1,4.4-2.3,8.9-3.7,13.4l-7.2,21.3H1749.3z"/>
		<path class="st4" d="M1780.2,708.8V635h10.4l23.6,37.3c5.5,8.6,9.7,16.4,13.2,24l0.2-0.1c-0.9-9.9-1.1-18.8-1.1-30.3V635h9v73.8
			h-9.6l-23.4-37.4c-5.1-8.2-10.1-16.6-13.8-24.6l-0.3,0.1c0.5,9.3,0.8,18.2,0.8,30.4v31.5H1780.2z"/>
		<path class="st4" d="M1864.1,685.6l-7.7,23.2h-9.9l25.1-73.8h11.5l25.2,73.8h-10.2l-7.9-23.2H1864.1z M1888.3,678.1l-7.2-21.2
			c-1.6-4.8-2.7-9.2-3.8-13.5h-0.2c-1.1,4.4-2.3,8.9-3.7,13.4l-7.2,21.3H1888.3z"/>
		<path class="st4" d="M1973.7,705.5c-4.3,1.5-12.7,4.1-22.7,4.1c-11.2,0-20.4-2.8-27.6-9.7c-6.3-6.1-10.3-16-10.3-27.5
			c0.1-22,15.2-38.1,40-38.1c8.5,0,15.2,1.9,18.4,3.4l-2.3,7.8c-3.9-1.8-8.9-3.2-16.3-3.2c-18,0-29.7,11.2-29.7,29.7
			c0,18.7,11.3,29.8,28.5,29.8c6.2,0,10.5-0.9,12.7-2v-22h-15V670h24.3V705.5z"/>
		<path class="st4" d="M2026.5,674.2h-28.7v26.6h32v8h-41.5V635h39.8v8h-30.3v23.3h28.7V674.2z"/>
		<path class="st4" d="M2104.3,676.4c-0.5-10.3-1.2-22.7-1.1-31.9h-0.3c-2.5,8.6-5.6,17.8-9.3,28l-13,35.8h-7.2l-11.9-35.1
			c-3.5-10.4-6.5-19.9-8.5-28.7h-0.2c-0.2,9.2-0.8,21.6-1.4,32.6l-2,31.6h-9.1l5.1-73.8h12.2l12.6,35.7c3.1,9.1,5.6,17.2,7.4,24.8
			h0.3c1.9-7.4,4.5-15.5,7.8-24.8l13.1-35.7h12.2l4.6,73.8h-9.3L2104.3,676.4z"/>
		<path class="st4" d="M2168.4,674.2h-28.7v26.6h32v8h-41.5V635h39.8v8h-30.3v23.3h28.7V674.2z"/>
		<path class="st4" d="M2184,708.8V635h10.4l23.6,37.3c5.5,8.6,9.7,16.4,13.2,24l0.2-0.1c-0.9-9.9-1.1-18.8-1.1-30.3V635h9v73.8
			h-9.6l-23.4-37.4c-5.1-8.2-10.1-16.6-13.8-24.6l-0.3,0.1c0.5,9.3,0.8,18.2,0.8,30.4v31.5H2184z"/>
		<path class="st4" d="M2270.1,643.1h-22.4V635h54.6v8.1h-22.6v65.7h-9.6V643.1z"/>
	</g>
</g>
</svg>
