<svg id="logo" xmlns="http://www.w3.org/2000/svg" xmlns:xlink="http://www.w3.org/1999/xlink" viewBox="0 0 1536 1536"><defs><style>.cls-1{fill:url(#radial-gradient);}.cls-2{clip-path:url(#clip-path);}.cls-3{fill:#050f2e;}.cls-4{fill:#0a1f5c;}.cls-5{fill:url(#linear-gradient);}.cls-6{opacity:0.3;}.cls-7{fill:#fff;}.cls-8{fill:url(#linear-gradient-2);}.cls-9{fill:url(#linear-gradient-3);}.cls-10{fill:url(#linear-gradient-4);}.cls-11{fill:url(#linear-gradient-5);}.cls-12{fill:url(#linear-gradient-6);}.cls-13{fill:url(#linear-gradient-7);}.cls-14{fill:#fe2719;}.cls-15{fill:#e60b00;}</style><radialGradient id="radial-gradient" cx="768" cy="512" r="512" gradientUnits="userSpaceOnUse"><stop offset="0" stop-color="#d1ecfa"/><stop offset="0.46" stop-color="#cfebfa"/><stop offset="0.62" stop-color="#c8e9f9"/><stop offset="0.74" stop-color="#bde4f8"/><stop offset="0.83" stop-color="#acddf6"/><stop offset="0.92" stop-color="#96d4f4"/><stop offset="0.99" stop-color="#7bc9f1"/><stop offset="1" stop-color="#75c7f0"/></radialGradient><clipPath id="clip-path"><rect id="clip" class="cls-1" x="256" width="1024" height="1024" rx="512" ry="512"/></clipPath><linearGradient id="linear-gradient" x1="1469" y1="497.33" x2="1469" y2="1180" gradientUnits="userSpaceOnUse"><stop offset="0" stop-color="#75c7f0"/><stop offset="0.06" stop-color="#66b3ee"/><stop offset="0.16" stop-color="#4e93ec"/><stop offset="0.28" stop-color="#3b79ea"/><stop offset="0.4" stop-color="#2c64e8"/><stop offset="0.54" stop-color="#2156e7"/><stop offset="0.71" stop-color="#1b4ee6"/><stop offset="1" stop-color="#194be6"/></linearGradient><linearGradient id="linear-gradient-2" x1="1229" y1="561.33" x2="1229" y2="1244" xlink:href="#linear-gradient"/><linearGradient id="linear-gradient-3" x1="1421" y1="625.33" x2="1421" y2="1308" xlink:href="#linear-gradient"/><linearGradient id="linear-gradient-4" x1="1037" y1="689.33" x2="1037" y2="1372" xlink:href="#linear-gradient"/><linearGradient id="linear-gradient-5" x1="1101" y1="753.33" x2="1101" y2="1436" xlink:href="#linear-gradient"/><linearGradient id="linear-gradient-6" x1="1165" y1="817.33" x2="1165" y2="1500" xlink:href="#linear-gradient"/><linearGradient id="linear-gradient-7" x1="1229" y1="881.33" x2="1229" y2="1564" xlink:href="#linear-gradient"/></defs><title>circle clear copy 3</title><g id="circle_square" data-name="circle square"><g id="logo-2" data-name="logo"><rect id="clip-2" data-name="clip" class="cls-1" x="256" width="1024" height="1024" rx="512" ry="512"/><g class="cls-2"><g id="boat"><g id="boat-2" data-name="boat"><path class="cls-3" d="M979.4,418.84c-38.94-17.41-139.34-64.75-186.38-87a58.3,58.3,0,0,0-50,0c-47,22.24-147.44,69.59-186.38,87-18.13,8.1-18.53,17.9-16.32,36.73,12.59,106.92,64.64,173.19,164.92,194.35,21,4.43,42.56,14.62,62.8,22.08,20.24-7.46,41.79-17.65,62.8-22.08,100.28-21.16,152.33-87.43,164.92-194.35C997.94,436.74,997.53,426.95,979.4,418.84Z"/><path class="cls-3" d="M743.27,251.52,521.06,355.06c-7.33,3.42-10.89,12.22-8.13,20.13l9.63,27.6L743.2,299.6a58.31,58.31,0,0,1,49.6,0l220.64,103.19,9.63-27.6c2.76-7.91-.8-16.71-8.13-20.13L792.73,251.52A58.31,58.31,0,0,0,743.27,251.52Z"/><path class="cls-3" d="M916.59,182.24,768,160,619.41,182.24a24,24,0,0,0-21.67,21.13L576,313.46l12-5.59,21.49-93.07a24,24,0,0,1,21.37-20.7L762,172v58.34a56.7,56.7,0,0,1,12,0V172l131.14,22.09a24,24,0,0,1,21.37,20.7L948,307.87l12,5.59-21.75-110.1A24,24,0,0,0,916.59,182.24Z"/></g><g id="half_boat" data-name="half boat"><path class="cls-4" d="M768,326.2a58.48,58.48,0,0,0-25,5.64c-47,22.24-147.44,69.59-186.38,87-18.13,8.1-18.53,17.9-16.32,36.73,12.59,106.92,64.64,173.19,164.92,194.35,21,4.43,42.56,14.62,62.8,22.08Z"/><path class="cls-4" d="M768,230V160L619.41,182.24a24,24,0,0,0-21.67,21.13L576,313.46l12-5.59,21.49-93.07a24,24,0,0,1,21.37-20.7L762,172v58.34A58.06,58.06,0,0,1,768,230Z"/><path class="cls-4" d="M768,246a58.48,58.48,0,0,0-24.73,5.5L521.06,355.06c-7.33,3.42-10.89,12.22-8.13,20.13l9.63,27.6L743.2,299.6a58.48,58.48,0,0,1,24.8-5.54Z"/></g></g><g id="waves"><path class="cls-5" d="M240,497.33V1180H2697.33l.67-596.67c-136.54,0-136.54-85.33-273.07-85.33s-136.54,85.33-273.07,85.33S2015.32,498,1878.79,498s-136.53,85.33-273.06,85.33h.27c-136.54,0-136.54-85.33-273.07-85.33s-136.54,85.33-273.07,85.33S923.32,498,786.79,498s-136.53,85.33-273.06,85.33S377.2,498,240.67,498Z"/><g class="cls-6"><path class="cls-7" d="M2424.93,506c66,0,98.19,20.13,132.3,41.45,33.19,20.74,67.47,42.16,132.77,43.78l-.65,580.76H248V506.08c61.07,1.44,92.14,20.85,125,41.37,34.52,21.57,70.21,43.88,140.77,43.88S620,569,654.5,547.45C688.6,526.13,720.82,506,786.79,506S885,526.13,919.08,547.45c34.52,21.57,70.21,43.88,140.77,43.88s106.26-22.31,140.78-43.88C1234.74,526.13,1267,506,1332.93,506s98.19,20.13,132.29,41.45c34.47,21.55,70.12,43.83,140.51,43.88h.27c70.39-.05,106-22.33,140.5-43.88,34.1-21.32,66.31-41.45,132.29-41.45s98.18,20.13,132.29,41.45c34.52,21.57,70.21,43.88,140.77,43.88s106.26-22.31,140.78-43.88C2326.74,526.13,2359,506,2424.93,506M240,497.33V1180H2697.33l.67-596.67c-136.54,0-136.54-85.33-273.07-85.33s-136.54,85.33-273.07,85.33S2015.32,498,1878.79,498s-136.52,85.28-272.93,85.33h0c-136.41-.05-136.44-85.33-272.94-85.33s-136.54,85.33-273.07,85.33S923.32,498,786.79,498s-136.53,85.33-273.06,85.33S377.2,498,240.67,498l-.67-.67Z"/></g><path class="cls-8" d="M0,561.33V1244H2457.33l.67-596.67c-136.54,0-136.54-85.33-273.07-85.33s-136.54,85.33-273.07,85.33S1775.32,562,1638.79,562s-136.53,85.33-273.06,85.33h.27c-136.54,0-136.54-85.33-273.07-85.33s-136.54,85.33-273.07,85.33S683.32,562,546.79,562s-136.53,85.33-273.06,85.33S137.2,562,.67,562Z"/><g class="cls-6"><path class="cls-7" d="M2184.93,570c66,0,98.19,20.13,132.3,41.45,33.19,20.74,67.47,42.16,132.77,43.78l-.65,580.76H8V570.08c61.07,1.44,92.14,20.85,125,41.37,34.52,21.57,70.21,43.88,140.77,43.88S380,633,414.5,611.45C448.6,590.13,480.82,570,546.79,570S645,590.13,679.08,611.45c34.52,21.57,70.21,43.88,140.77,43.88S926.11,633,960.63,611.45C994.74,590.13,1027,570,1092.93,570s98.19,20.13,132.29,41.45c34.47,21.55,70.12,43.83,140.51,43.88h.27c70.39-.05,106-22.33,140.5-43.88,34.1-21.32,66.31-41.45,132.29-41.45s98.18,20.13,132.29,41.45c34.52,21.57,70.21,43.88,140.77,43.88s106.26-22.31,140.78-43.88C2086.74,590.13,2119,570,2184.93,570M0,561.33V1244H2457.33l.67-596.67c-136.54,0-136.54-85.33-273.07-85.33s-136.54,85.33-273.07,85.33S1775.32,562,1638.79,562s-136.52,85.28-272.93,85.33h0c-136.41-.05-136.44-85.33-272.94-85.33s-136.54,85.33-273.07,85.33S683.32,562,546.79,562s-136.53,85.33-273.06,85.33S137.2,562,.67,562L0,561.33Z"/></g><path class="cls-9" d="M192,625.33V1308H2649.33l.67-596.67c-136.54,0-136.54-85.33-273.07-85.33s-136.54,85.33-273.07,85.33S1967.32,626,1830.79,626s-136.53,85.33-273.06,85.33h.27c-136.54,0-136.54-85.33-273.07-85.33s-136.54,85.33-273.07,85.33S875.32,626,738.79,626s-136.53,85.33-273.06,85.33S329.2,626,192.67,626Z"/><g class="cls-6"><path class="cls-7" d="M2376.93,634c66,0,98.19,20.13,132.3,41.45,33.19,20.74,67.47,42.16,132.77,43.78l-.65,580.76H200V634.08c61.07,1.44,92.14,20.85,125,41.37,34.52,21.57,70.21,43.88,140.77,43.88S572,697,606.5,675.45C640.6,654.13,672.82,634,738.79,634S837,654.13,871.08,675.45c34.52,21.57,70.21,43.88,140.77,43.88s106.26-22.31,140.78-43.88C1186.74,654.13,1219,634,1284.93,634s98.19,20.13,132.29,41.45c34.47,21.55,70.12,43.83,140.51,43.88h.27c70.39-.05,106-22.33,140.5-43.88,34.1-21.32,66.31-41.45,132.29-41.45s98.18,20.13,132.29,41.45c34.52,21.57,70.21,43.88,140.77,43.88s106.26-22.31,140.78-43.88C2278.74,654.13,2311,634,2376.93,634M192,625.33V1308H2649.33l.67-596.67c-136.54,0-136.54-85.33-273.07-85.33s-136.54,85.33-273.07,85.33S1967.32,626,1830.79,626s-136.52,85.28-272.93,85.33h0c-136.41-.05-136.44-85.33-272.94-85.33s-136.54,85.33-273.07,85.33S875.32,626,738.79,626s-136.53,85.33-273.06,85.33S329.2,626,192.67,626l-.67-.67Z"/></g><path class="cls-10" d="M-192,689.33V1372H2265.33l.67-596.67c-136.54,0-136.54-85.33-273.07-85.33s-136.54,85.33-273.07,85.33S1583.32,690,1446.79,690s-136.53,85.33-273.06,85.33h.27c-136.54,0-136.54-85.33-273.07-85.33s-136.54,85.33-273.07,85.33S491.32,690,354.79,690,218.26,775.33,81.73,775.33-54.8,690-191.33,690Z"/><g class="cls-6"><path class="cls-7" d="M1992.93,698c66,0,98.19,20.13,132.3,41.45,33.19,20.74,67.47,42.16,132.77,43.78l-.65,580.76H-184V698.08c61.07,1.44,92.14,20.85,125,41.37C-24.53,761,11.17,783.33,81.73,783.33S188,761,222.5,739.45C256.6,718.13,288.82,698,354.79,698S453,718.13,487.08,739.45c34.52,21.57,70.21,43.88,140.77,43.88S734.11,761,768.63,739.45C802.74,718.13,835,698,900.93,698s98.19,20.13,132.29,41.45c34.47,21.55,70.12,43.83,140.51,43.88h.27c70.39-.05,106-22.33,140.5-43.88,34.1-21.32,66.31-41.45,132.29-41.45s98.18,20.13,132.29,41.45c34.52,21.57,70.21,43.88,140.77,43.88s106.26-22.31,140.78-43.88C1894.74,718.13,1927,698,1992.93,698M-192,689.33V1372H2265.33l.67-596.67c-136.54,0-136.54-85.33-273.07-85.33s-136.54,85.33-273.07,85.33S1583.32,690,1446.79,690s-136.52,85.28-272.93,85.33h0C1037.45,775.28,1037.42,690,900.93,690s-136.54,85.33-273.07,85.33S491.32,690,354.79,690,218.26,775.33,81.73,775.33-54.8,690-191.33,690l-.67-.67Z"/></g><path class="cls-11" d="M-128,753.33V1436H2329.33l.67-596.67c-136.54,0-136.54-85.33-273.07-85.33s-136.54,85.33-273.07,85.33S1647.32,754,1510.79,754s-136.53,85.33-273.06,85.33h.27c-136.54,0-136.54-85.33-273.07-85.33s-136.54,85.33-273.07,85.33S555.32,754,418.79,754s-136.53,85.33-273.06,85.33S9.2,754-127.33,754Z"/><g class="cls-6"><path class="cls-7" d="M2056.93,762c66,0,98.19,20.13,132.3,41.45,33.19,20.74,67.47,42.16,132.77,43.78l-.65,580.76H-120V762.08c61.07,1.44,92.14,20.85,125,41.37C39.47,825,75.17,847.33,145.73,847.33S252,825,286.5,803.45C320.6,782.13,352.82,762,418.79,762S517,782.13,551.08,803.45c34.52,21.57,70.21,43.88,140.77,43.88S798.11,825,832.63,803.45C866.74,782.13,899,762,964.93,762s98.19,20.13,132.29,41.45c34.47,21.55,70.12,43.83,140.51,43.88h.27c70.39-.05,106-22.33,140.5-43.88,34.1-21.32,66.31-41.45,132.29-41.45s98.18,20.13,132.29,41.45c34.52,21.57,70.21,43.88,140.77,43.88s106.26-22.31,140.78-43.88C1958.74,782.13,1991,762,2056.93,762M-128,753.33V1436H2329.33l.67-596.67c-136.54,0-136.54-85.33-273.07-85.33s-136.54,85.33-273.07,85.33S1647.32,754,1510.79,754s-136.52,85.28-272.93,85.33h0C1101.45,839.28,1101.42,754,964.93,754s-136.54,85.33-273.07,85.33S555.32,754,418.79,754s-136.53,85.33-273.06,85.33S9.2,754-127.33,754l-.67-.67Z"/></g><path class="cls-12" d="M-64,817.33V1500H2393.33l.67-596.67c-136.54,0-136.54-85.33-273.07-85.33s-136.54,85.33-273.07,85.33S1711.32,818,1574.79,818s-136.53,85.33-273.06,85.33h.27c-136.54,0-136.54-85.33-273.07-85.33s-136.54,85.33-273.07,85.33S619.32,818,482.79,818s-136.53,85.33-273.06,85.33S73.2,818-63.33,818Z"/><g class="cls-6"><path class="cls-7" d="M2120.93,826c66,0,98.19,20.13,132.3,41.45,33.19,20.74,67.47,42.16,132.77,43.78l-.65,580.76H-56V826.08c61.07,1.44,92.14,20.85,125,41.37,34.52,21.57,70.21,43.88,140.77,43.88S316,889,350.5,867.45C384.6,846.13,416.82,826,482.79,826S581,846.13,615.08,867.45c34.52,21.57,70.21,43.88,140.77,43.88S862.11,889,896.63,867.45C930.74,846.13,963,826,1028.93,826s98.19,20.13,132.29,41.45c34.47,21.55,70.12,43.83,140.51,43.88h.27c70.39-.05,106-22.33,140.5-43.88,34.1-21.32,66.31-41.45,132.29-41.45s98.18,20.13,132.29,41.45c34.52,21.57,70.21,43.88,140.77,43.88s106.26-22.31,140.78-43.88C2022.74,846.13,2055,826,2120.93,826M-64,817.33V1500H2393.33l.67-596.67c-136.54,0-136.54-85.33-273.07-85.33s-136.54,85.33-273.07,85.33S1711.32,818,1574.79,818s-136.52,85.28-272.93,85.33h0c-136.41-.05-136.44-85.33-272.94-85.33s-136.54,85.33-273.07,85.33S619.32,818,482.79,818s-136.53,85.33-273.06,85.33S73.2,818-63.33,818l-.67-.67Z"/></g><path class="cls-13" d="M0,881.33V1564H2457.33l.67-596.67c-136.54,0-136.54-85.33-273.07-85.33s-136.54,85.33-273.07,85.33S1775.32,882,1638.79,882s-136.53,85.33-273.06,85.33h.27c-136.54,0-136.54-85.33-273.07-85.33s-136.54,85.33-273.07,85.33S683.32,882,546.79,882s-136.53,85.33-273.06,85.33S137.2,882,.67,882Z"/><g class="cls-6"><path class="cls-7" d="M2184.93,890c66,0,98.19,20.13,132.3,41.45,33.19,20.74,67.47,42.16,132.77,43.78l-.65,580.77H8V890.08c61.07,1.44,92.14,20.85,125,41.37,34.52,21.57,70.21,43.88,140.77,43.88S380,953,414.5,931.45C448.6,910.13,480.82,890,546.79,890S645,910.13,679.08,931.45c34.52,21.57,70.21,43.88,140.77,43.88S926.11,953,960.63,931.45C994.74,910.13,1027,890,1092.93,890s98.19,20.13,132.29,41.45c34.47,21.55,70.12,43.83,140.51,43.88h.27c70.39-.05,106-22.33,140.5-43.88,34.1-21.32,66.31-41.45,132.29-41.45s98.18,20.13,132.29,41.45c34.52,21.57,70.21,43.88,140.77,43.88s106.26-22.31,140.78-43.88C2086.74,910.13,2119,890,2184.93,890M0,881.33V1564H2457.33l.67-596.67c-136.54,0-136.54-85.33-273.07-85.33s-136.54,85.33-273.07,85.33S1775.32,882,1638.79,882s-136.52,85.28-272.93,85.33h0c-136.41-.05-136.44-85.33-272.94-85.33s-136.54,85.33-273.07,85.33S683.32,882,546.79,882s-136.53,85.33-273.06,85.33S137.2,882,.67,882L0,881.33Z"/></g></g><g id="flag"><rect class="cls-3" x="988" y="192" width="8" height="172"/><polygon class="cls-14" points="1043 223.99 1019.5 235.99 996 247.99 996 223.99 996 199.99 1019.5 211.99 1043 223.99"/></g><g id="lifebouy"><path class="cls-14" d="M576,448a64,64,0,1,0,64,64A64,64,0,0,0,576,448Zm0,104a40,40,0,1,1,40-40A40,40,0,0,1,576,552Z"/><path class="cls-15" d="M576,448v24a40,40,0,0,1,0,80v24a64,64,0,0,0,0-128Z"/><path class="cls-7" d="M554.26,478.45,537,461.23a64.35,64.35,0,0,0-11.37,11.25l17.17,17.17A40.32,40.32,0,0,1,554.26,478.45Z"/><path class="cls-7" d="M542.84,534.35l-17.17,17.17A64.36,64.36,0,0,0,537,562.77l17.22-17.22A40.31,40.31,0,0,1,542.84,534.35Z"/><path class="cls-7" d="M626.77,551l-17.22-17.22a40.31,40.31,0,0,1-11.2,11.42l17.17,17.17A64.36,64.36,0,0,0,626.77,551Z"/><path class="cls-7" d="M609.55,490.26,626.77,473a64.36,64.36,0,0,0-11.25-11.37l-17.17,17.17A40.32,40.32,0,0,1,609.55,490.26Z"/></g></g></g></g><path class="cls-3" d="M0,1536.1v-282H39.72l90.38,142.68c20.92,33.06,37.24,62.76,50.63,91.64l.84-.42c-3.35-37.66-4.18-72-4.18-115.9v-118H211.7v282H174.87L85.33,1393c-19.67-31.38-38.5-63.6-52.72-94.14l-1.26.42c2.09,35.57,2.93,69.46,2.93,116.32V1536.1Z"/><path class="cls-3" d="M311.69,1254.08v282h-36.4v-282Z"/><path class="cls-3" d="M437.22,1536.1l-92.05-282h39.33L428.43,1393c12.13,38.08,22.59,72.39,30.13,105.44h.84c7.95-32.64,19.67-68.2,32.22-105l47.7-139.33h38.91l-100.84,282Z"/><path class="cls-3" d="M630.53,1447.39l-29.29,88.71H563.58l95.82-282h43.93l96.24,282H760.66l-30.13-88.71ZM723,1418.94l-27.62-81.17c-6.28-18.41-10.46-35.15-14.65-51.47h-.84c-4.18,16.74-8.79,33.89-14.23,51l-27.62,81.59Z"/><path class="cls-3" d="M841,1257.85c18.41-3.76,44.77-5.86,69.88-5.86,38.91,0,64,7.11,81.59,23,14.23,12.55,22.18,31.8,22.18,53.56,0,37.24-23.43,61.93-53.14,72v1.26c21.76,7.53,34.73,27.62,41.42,56.91,9.2,39.33,15.9,66.53,21.76,77.41H987c-4.6-8-10.88-32.22-18.83-67.37-8.37-38.91-23.43-53.56-56.49-54.81H877.39V1536.1H841Zm36.4,128.46h37.24c38.91,0,63.6-21.34,63.6-53.56,0-36.4-26.36-52.3-64.86-52.72-17.57,0-30.13,1.67-36,3.35Z"/><path class="cls-3" d="M1113.79,1447.39l-29.29,88.71h-37.66l95.82-282h43.93l96.24,282h-38.91l-30.13-88.71Zm92.47-28.45-27.62-81.17c-6.28-18.41-10.46-35.15-14.65-51.47h-.84c-4.18,16.74-8.79,33.89-14.23,51l-27.62,81.59Z"/><path class="cls-3" d="M1324.25,1536.1v-282H1364l90.38,142.68c20.92,33.06,37.24,62.76,50.63,91.64l.84-.42c-3.35-37.66-4.18-72-4.18-115.9v-118H1536v282h-36.82L1409.61,1393c-19.67-31.38-38.5-63.6-52.72-94.14l-1.26.42c2.09,35.57,2.93,69.46,2.93,116.32V1536.1Z"/></svg>